<svg xmlns="http://www.w3.org/2000/svg" width="64" height="64" stroke="#000" stroke-linecap="round" stroke-linejoin="round" fill="#fff" fill-rule="evenodd"><defs><linearGradient id="A" x1="0%" y1="0%" x2="100%" y2="100%"><stop offset="0%" stop-color="#e07f15"/><stop offset="100%" stop-color="#530a15"/></linearGradient></defs><path d="M29.996 7.538a1.902 1.902 0 0 1 .951-1.6472c.5885-.3397 1.3135-.3397 1.902 0A1.902 1.902 0 0 1 33.8 7.538c0 1.0504-.8516 1.902-1.902 1.902s-1.902-.8516-1.902-1.902M7.304 24.758c0-1.0504.8515-1.902 1.902-1.902s1.902.8516 1.902 1.902-.8516 1.902-1.902 1.902-1.902-.8516-1.902-1.902m45.384.088c0-1.0505.8516-1.902 1.902-1.902s1.902.8515 1.902 1.902-.8515 1.902-1.902 1.902-1.902-.8516-1.902-1.902m-39.88 2.612c.875-.3908 1.2693-1.4155.882-2.292l-.844-1.908h3.32v14.96H9.468a23.422 23.422 0 0 1-.758-8.94zm13.884.368v-4.41h7.904c.408 0 2.88.472 2.88 2.32 0 1.536-1.9 2.088-3.46 2.088zM15.9 51.568a1.902 1.902 0 0 1 .951-1.6472c.5885-.3397 1.3135-.3397 1.902 0a1.902 1.902 0 0 1 .951 1.6472c0 1.0505-.8516 1.902-1.902 1.902s-1.902-.8515-1.902-1.902m28.186.088c0-1.0504.8515-1.902 1.902-1.902s1.902.8516 1.902 1.902-.8516 1.902-1.902 1.902-1.902-.8515-1.902-1.902m.588-4.314c-.94-.2-1.86.396-2.06 1.334l-.954 4.456c-6.2131 2.814-13.3443 2.7797-19.53-.094l-.954-4.456c-.2-.94-1.12-1.536-2.06-1.334l-3.934.844c-.731-.7529-1.4105-1.554-2.034-2.398h19.14c.216 0 .36-.04.36-.236v-6.77c0-.2-.144-.236-.36-.236h-5.6V34.16h6.054c.552 0 2.954.16 3.724 3.228l1.13 5c.36 1.1 1.826 3.306 3.386 3.306h9.88c-.6631.8869-1.3882 1.7257-2.17 2.51zm10.628-17.876c.1345 1.3513.1513 2.7118.05 4.066h-2.4c-.24 0-.34.16-.34.394v1.104c0 2.6-1.464 3.16-2.748 3.306-1.22.14-2.58-.512-2.744-1.26-.72-4.056-1.92-4.92-3.8-6.42 2.354-1.496 4.804-3.7 4.804-6.654 0-3.188-2.186-5.196-3.676-6.18-2.09-1.38-4.404-1.654-5.028-1.654H14.55a23.42 23.42 0 0 1 13.102-7.394l2.93 3.074c.66.694 1.76.72 2.452.056l3.28-3.134c6.7623 1.2662 12.6258 5.4417 16.034 11.418l-2.244 5.068c-.3873.8765.007 1.9012.882 2.292zm5.596.08l-.076-.784 2.312-2.156c.47-.44.294-1.32-.306-1.544l-2.954-1.104-.232-.76 1.84-2.56c.376-.52.03-1.35-.6-1.454l-3.116-.506-.374-.7 1.31-2.874c.268-.586-.23-1.334-.874-1.31l-3.16.11-.5-.606.726-3.08c.146-.626-.488-1.26-1.114-1.114l-3.08.726-.608-.5.11-3.16c.024-.64-.724-1.14-1.308-.874l-2.872 1.31-.7-.376-.508-3.116c-.1-.632-.934-.976-1.454-.6l-2.56 1.84-.76-.23-1.104-2.954c-.224-.6-1.106-.776-1.544-.308l-2.156 2.312-.784-.076-1.664-2.69c-.336-.544-1.24-.544-1.574 0l-1.664 2.69-.784.076-2.16-2.316c-.44-.468-1.32-.294-1.544.308L23.958 4.12l-.76.23-2.56-1.84c-.52-.376-1.352-.03-1.454.6l-.508 3.116-.7.376-2.872-1.31c-.584-.266-1.334.234-1.308.874l.11 3.16-.608.5-3.08-.726c-.626-.146-1.26.488-1.114 1.114l.726 3.08-.5.606-3.16-.11c-.64-.02-1.14.724-.874 1.31l1.31 2.874-.376.7-3.116.506c-.632.1-.976.934-.6 1.454l1.84 2.56-.232.76-2.954 1.104c-.6.224-.776 1.106-.306 1.544l2.312 2.156-.076.784-2.69 1.664c-.544.336-.544 1.24 0 1.574l2.69 1.664.076.784-2.318 2.164c-.468.44-.294 1.32.306 1.544l2.954 1.104.232.76-1.84 2.56c-.374.52-.03 1.352.6 1.454l3.114.506.376.7-1.31 2.872c-.266.584.236 1.334.874 1.31l3.16-.11.5.608-.726 3.08c-.146.624.488 1.26 1.114 1.112l3.08-.726.608.5-.11 3.16c-.024.64.724 1.14 1.308.874l2.872-1.31.7.376.508 3.114c.1.634.934.976 1.454.604l2.56-1.844.76.232 1.104 2.954c.224.6 1.106.776 1.544.306l2.156-2.312.784.08 1.664 2.69c.336.54 1.236.544 1.574 0l1.664-2.69.784-.08 2.156 2.312c.44.47 1.32.294 1.544-.306l1.104-2.954.76-.232 2.56 1.844c.52.374 1.352.03 1.454-.604l.508-3.114.7-.376 2.872 1.31c.584.266 1.332-.232 1.308-.874l-.11-3.16.606-.5 3.08.726c.626.146 1.26-.488 1.114-1.112l-.726-3.08.5-.608 3.16.11c.64.026 1.14-.726.874-1.31l-1.31-2.872.374-.7 3.116-.506c.634-.1.98-.932.6-1.454l-1.84-2.56.232-.76 2.954-1.104c.6-.226.776-1.106.306-1.544l-2.312-2.156.076-.784 2.69-1.664c.544-.336.546-1.236 0-1.574z" stroke="none" fill-rule="nonzero" fill="url(#A)"/></svg>