<?xml version="1.0" encoding="UTF-8" standalone="no"?>
<svg
   width="86.325943"
   height="26.000008"
   version="1.1"
   id="svg71"
   sodipodi:docname="systemd-dark.svg"
   inkscape:version="1.1.2 (0a00cf5339, 2022-02-04)"
   xmlns:inkscape="http://www.inkscape.org/namespaces/inkscape"
   xmlns:sodipodi="http://sodipodi.sourceforge.net/DTD/sodipodi-0.dtd"
   xmlns="http://www.w3.org/2000/svg"
   xmlns:svg="http://www.w3.org/2000/svg">
  <defs
     id="defs75">
    <clipPath
       clipPathUnits="userSpaceOnUse"
       id="clipPath10208">
      <rect
         style="fill:none;fill-opacity:1"
         id="rect10210"
         width="85.796783"
         height="25.878563"
         x="-11.79678"
         y="917.73145"
         rx="1.27788"
         ry="0.121437" />
    </clipPath>
  </defs>
  <sodipodi:namedview
     id="namedview73"
     pagecolor="#ffffff"
     bordercolor="#666666"
     borderopacity="1.0"
     inkscape:pageshadow="2"
     inkscape:pageopacity="0.0"
     inkscape:pagecheckerboard="0"
     showgrid="false"
     inkscape:zoom="4.035"
     inkscape:cx="16.728625"
     inkscape:cy="-25.650558"
     inkscape:window-width="1920"
     inkscape:window-height="1016"
     inkscape:window-x="0"
     inkscape:window-y="0"
     inkscape:window-maximized="1"
     inkscape:current-layer="svg71"
     fit-margin-top="0"
     fit-margin-left="0"
     fit-margin-right="0"
     fit-margin-bottom="0" />
  <g
     transform="translate(12.055496,-917.61)"
     id="g69">
    <path
       fill="#201a26"
       d="m -60,831.611 h 300 v 200 H -60 Z"
       id="path59"
       clip-path="url(#clipPath10208)"
       inkscape:original-d="m -60,831.611 h 300 v 200 H -60 Z" />
    <path
       fill="#ffffff"
       d="m -12,917.61 v 26 h 10 v -4 h -6 v -18 h 6 v -4 z m 76,0 v 4 h 6 v 18 h -6 v 4 h 10 v -26 z"
       color="#000000"
       font-family="sans-serif"
       font-weight="400"
       overflow="visible"
       style="line-height:normal;font-variant-ligatures:normal;font-variant-position:normal;font-variant-caps:normal;font-variant-numeric:normal;font-variant-alternates:normal;font-feature-settings:normal;text-indent:0;text-align:start;text-decoration-line:none;text-decoration-style:solid;text-decoration-color:#000000;text-transform:none;text-orientation:mixed;white-space:normal;shape-padding:0;isolation:auto;mix-blend-mode:normal;solid-color:#000000;solid-opacity:1"
       id="path61"
       inkscape:original-d="m -12,917.61 v 26 h 10 v -4 h -6 v -18 h 6 v -4 z m 76,0 v 4 h 6 v 18 h -6 v 4 h 10 v -26 z" />
    <path
       fill="#30d475"
       d="m 33,930.61 18,-10 v 20 z"
       id="path65"
       inkscape:original-d="m 33,930.61 18,-10 v 20 z" />
    <circle
       cx="18.000999"
       cy="930.61102"
       r="9"
       fill="#30d475"
       id="circle67" />
  </g>
  <path
     style="fill:#a0a0a0;stroke:none;stroke-width:0.247831"
     d="m 76.095146,24.03717 v -1.85873 h 3.0979 3.09789 V 13.008674 3.83891 h -3.09789 -3.0979 V 1.980173 0.12143705 h 4.95663 4.95663 V 13.008674 25.89591 h -4.95663 -4.95663 z"
     id="path233" />
  <path
     style="fill:#00ff00;stroke:none;stroke-width:0.247831"
     d="M 0.25871826,13.008674 V 0.12143705 H 5.0914323 9.9241454 V 1.980173 3.83891 H 6.9501683 3.9761903 v 9.169764 9.169766 h 2.973978 2.9739771 v 1.85873 1.85874 H 5.0914323 0.25871826 Z"
     id="path272" />
  <path
     style="fill:#30d475;fill-opacity:1;stroke-width:0.247831"
     d="m 76.412683,24.072898 v -1.85873 h 3.0979 3.09789 V 13.044402 3.8746385 h -3.09789 -3.0979 V 2.0159015 0.15716553 h 4.95663 4.95663 V 13.044402 25.931638 h -4.95663 -4.95663 z"
     id="path385" />
  <path
     style="fill:#30d475;fill-opacity:1;stroke-width:0.247831"
     d="M 0.25871826,13.008674 V 0.12143705 H 5.0914323 9.9241454 V 1.980173 3.83891 H 6.9501683 3.9761903 v 9.169764 9.169766 h 2.973978 2.9739771 v 1.85873 1.85874 H 5.0914323 0.25871826 Z"
     id="path9626" />
  <rect
     style="fill:none;fill-opacity:1"
     id="rect9767"
     width="0.20322201"
     height="13.008674"
     x="0.055496216"
     y="0" />
  <rect
     style="fill:none;fill-opacity:1"
     id="rect9841"
     width="4.3990088"
     height="0.17909697"
     x="67.085114"
     y="10.492607"
     rx="1.27788"
     ry="0.17909697" />
  <rect
     style="fill:none;fill-opacity:1"
     id="rect9843"
     width="0.20322201"
     height="0.121437"
     x="0.055496216"
     y="0"
     rx="1.27788"
     ry="0.121437" />
  <rect
     style="fill:none;fill-opacity:1;stroke-width:0.754473"
     id="rect9879"
     width="86.325943"
     height="25.716476"
     x="0"
     y="0.15716553"
     rx="1.0410494"
     ry="0.084850952" />
</svg>
